<?xml version="1.0" encoding="UTF-8"?>
<svg width="100px" height="90px" viewBox="0 0 100 90" version="1.1" xmlns="http://www.w3.org/2000/svg" xmlns:xlink="http://www.w3.org/1999/xlink">
    <!-- Generator: Sketch 52.5 (67469) - http://www.bohemiancoding.com/sketch -->
    <title>collar</title>
    <desc>Created with Sketch.</desc>
    <g id="Page-1" stroke="none" stroke-width="1" fill="none" fill-rule="evenodd">
        <g id="Desktop" transform="translate(-933.000000, -869.000000)" fill="#000000">
            <g id="Group" transform="translate(933.000000, 869.000000)">
                <g id="collar" transform="translate(0.000000, -0.000000)">
                    <path d="M41.6666667,56.6666667 L58.3333333,56.6666667 C59.2537435,56.6666667 60,55.9204102 60,55 L60,38.3333333 C60,37.4129231 59.2537435,36.6666667 58.3333333,36.6666667 L41.6666667,36.6666667 C40.7462565,36.6666667 40,37.4129231 40,38.3333333 L40,55 C40,55.9204102 40.7462565,56.6666667 41.6666667,56.6666667 Z M43.3333333,40 L48.3333333,40 L48.3333333,46.6666667 C48.3333333,47.5870769 49.0795898,48.3333333 50,48.3333333 C50.9204102,48.3333333 51.6666667,47.5870769 51.6666667,46.6666667 L51.6666667,40 L56.6666667,40 L56.6666667,53.3333333 L43.3333333,53.3333333 L43.3333333,40 Z" id="Shape" fill-rule="nonzero"></path>
                    <path d="M73.3333333,45 L71.6666667,45 C70.7462565,45 70,45.7462565 70,46.6666667 C70,47.5870769 70.7462565,48.3333333 71.6666667,48.3333333 L73.3333333,48.3333333 C74.2537435,48.3333333 75,47.5870769 75,46.6666667 C75,45.7462565 74.2537435,45 73.3333333,45 Z" id="Path"></path>
                    <path d="M81.6666667,45 L80,45 C79.0795898,45 78.3333333,45.7462565 78.3333333,46.6666667 C78.3333333,47.5870769 79.0795898,48.3333333 80,48.3333333 L81.6666667,48.3333333 C82.5870769,48.3333333 83.3333333,47.5870769 83.3333333,46.6666667 C83.3333333,45.7462565 82.5870769,45 81.6666667,45 Z" id="Path"></path>
                    <path d="M60,11.6666667 L61.6666667,11.6666667 C62.5870769,11.6666667 63.3333333,10.9204102 63.3333333,10 C63.3333333,9.07958979 62.5870769,8.33333333 61.6666667,8.33333333 L60,8.33333333 C59.0795898,8.33333333 58.3333333,9.07958979 58.3333333,10 C58.3333333,10.9204102 59.0795898,11.6666667 60,11.6666667 Z" id="Path"></path>
                    <path d="M51.6666667,11.6666667 L53.3333333,11.6666667 C54.2537435,11.6666667 55,10.9204102 55,10 C55,9.07958979 54.2537435,8.33333333 53.3333333,8.33333333 L51.6666667,8.33333333 C50.7462565,8.33333333 50,9.07958979 50,10 C50,10.9204102 50.7462565,11.6666667 51.6666667,11.6666667 Z" id="Path"></path>
                    <path d="M43.3333333,11.6666667 L45,11.6666667 C45.9204102,11.6666667 46.6666667,10.9204102 46.6666667,10 C46.6666667,9.07958979 45.9204102,8.33333333 45,8.33333333 L43.3333333,8.33333333 C42.4129231,8.33333333 41.6666667,9.07958979 41.6666667,10 C41.6666667,10.9204102 42.4129231,11.6666667 43.3333333,11.6666667 Z" id="Path"></path>
                    <path d="M97.9996746,9.33349604 L94.8901367,7.00032542 C88.824056,2.46988938 81.4591471,0.0146484375 73.8883462,0 L26.1116537,0 C18.5408529,0.01546225 11.1775717,2.46988937 5.11149083,7.00032542 L2.00032542,9.33349604 C0.743815,10.2799479 0.00325520833,11.760254 -5.68434189e-14,13.3333333 L-5.68434189e-14,43.3333333 C0.00244141667,44.9064127 0.74300125,46.3875325 2.00032542,47.3331706 L5.10986333,49.6663412 C7.63346354,51.5486654 10.3995769,53.0826823 13.3333333,54.2252604 L13.3333333,60 C13.3333333,60.9204102 14.0795898,61.6666667 15,61.6666667 L21.6666667,61.6666667 C22.5870769,61.6666667 23.3333333,60.9204102 23.3333333,60 L23.3333333,56.5429688 C24.260254,56.6170248 25.1879883,56.6666667 26.1116537,56.6666667 L33.3333333,56.6666667 L33.3333333,61.6666667 C33.3333333,62.5870769 34.0795898,63.3333333 35,63.3333333 L48.3333333,63.3333333 L48.3333333,71.6666667 L41.4567058,71.6666667 C40.7421875,68.8948567 38.33903,66.8880208 35.4842123,66.6805013 C32.6293946,66.4737956 29.9609375,68.1111654 28.8533529,70.7503254 C27.7457683,73.3902996 28.4472656,76.4420573 30.5948894,78.3333333 C28.4472656,80.2246094 27.7457683,83.2763671 28.8533529,85.9163413 C29.9609375,88.5555013 32.6293946,90.192871 35.4842123,89.9861654 C38.33903,89.7786458 40.7421875,87.77181 41.4567058,85 L58.5432942,85 C59.2578125,87.77181 61.66097,89.7786458 64.5157877,89.9861654 C67.3706054,90.192871 70.0390625,88.5555013 71.1466471,85.9163413 C72.2542317,83.2763671 71.5527344,80.2246094 69.4051106,78.3333333 C71.5527344,76.4420573 72.2542317,73.3902996 71.1466471,70.7503254 C70.0390625,68.1111654 67.3706054,66.4737956 64.5157877,66.6805013 C61.66097,66.8880208 59.2578125,68.8948567 58.5432942,71.6666667 L51.6666667,71.6666667 L51.6666667,63.3333333 L65,63.3333333 C65.9204102,63.3333333 66.6666667,62.5870769 66.6666667,61.6666667 L66.6666667,56.6666667 L73.8883462,56.6666667 C81.4591471,56.6512044 88.8224283,54.1967773 94.8885092,49.6663412 L97.9996746,47.3331706 C99.256185,46.3867188 99.9967448,44.9064127 100,43.3333333 L100,13.3333333 C99.9975585,11.760254 99.2569987,10.2791342 97.9996746,9.33349604 Z M3.33333333,13.3333333 C3.33333333,12.808431 3.58072917,12.3144531 3.99983729,12.0003254 L7.11181646,9.66634125 C12.6000977,5.56803375 19.2618815,3.34716792 26.1116537,3.33333333 L62.7783204,3.33333333 L68.3333333,7.5 L68.3333333,12.5 L62.7783204,16.6666667 L26.1116537,16.6666667 C18.5408529,16.682129 11.1775717,19.136556 5.11149083,23.6669921 L3.33333333,25 L3.33333333,13.3333333 Z M13.3333333,50.641276 C11.1271158,49.6687825 9.03971354,48.4472656 7.11181646,47.0003254 L3.99983729,44.6663412 C3.58072917,44.3522135 3.33333333,43.8582356 3.33333333,43.3333333 L3.33333333,31.6666667 L5.10986333,32.9996746 C7.63346354,34.8819987 10.3995769,36.4160156 13.3333333,37.5585937 L13.3333333,50.641276 Z M20,58.3333333 L16.6666667,58.3333333 L16.6666667,31.6666667 L20,31.6666667 L20,58.3333333 Z M33.3333333,53.3333333 L26.1116537,53.3333333 C25.1879883,53.3333333 24.260254,53.2763671 23.3333333,53.1949871 L23.3333333,39.8763021 C24.260254,39.9503581 25.1879883,40 26.1116537,40 L33.3333333,40 L33.3333333,53.3333333 Z M60,75 C60.9204102,75 61.6666667,74.2537435 61.6666667,73.3333333 C61.6666667,71.4925129 63.1591796,70 65,70 C66.8408204,70 68.3333333,71.4925129 68.3333333,73.3333333 C68.3333333,75.1741538 66.8408204,76.6666667 65,76.6666667 L64.5597331,76.6666667 C63.6393229,76.6666667 62.8930665,77.4129231 62.8930665,78.3333333 C62.8930665,79.2537435 63.6393229,80 64.5597331,80 L65,80 C66.8408204,80 68.3333333,81.4925129 68.3333333,83.3333333 C68.3333333,85.1741537 66.8408204,86.6666667 65,86.6666667 C63.1591796,86.6666667 61.6666667,85.1741537 61.6666667,83.3333333 C61.6666667,82.4129231 60.9204102,81.6666667 60,81.6666667 L40,81.6666667 C39.0795898,81.6666667 38.3333333,82.4129231 38.3333333,83.3333333 C38.3333333,85.1741537 36.8408204,86.6666667 35,86.6666667 C33.1591796,86.6666667 31.6666667,85.1741537 31.6666667,83.3333333 C31.6666667,81.4925129 33.1591796,80 35,80 L35.4402669,80 C36.3606771,80 37.1069335,79.2537435 37.1069335,78.3333333 C37.1069335,77.4129231 36.3606771,76.6666667 35.4402669,76.6666667 L35,76.6666667 C33.1591796,76.6666667 31.6666667,75.1741538 31.6666667,73.3333333 C31.6666667,71.4925129 33.1591796,70 35,70 C36.8408204,70 38.3333333,71.4925129 38.3333333,73.3333333 C38.3333333,74.2537435 39.0795898,75 40,75 L60,75 Z M63.3333333,60 L36.6666667,60 L36.6666667,33.3333333 L63.3333333,33.3333333 L63.3333333,60 Z M65,30 L35,30 C34.0795898,30 33.3333333,30.7462565 33.3333333,31.6666667 L33.3333333,36.6666667 L26.1116537,36.6666667 C25.1879883,36.6666667 24.260254,36.6097004 23.3333333,36.5283204 L23.3333333,30 C23.3333333,29.0795898 22.5870769,28.3333333 21.6666667,28.3333333 L15,28.3333333 C14.0795898,28.3333333 13.3333333,29.0795898 13.3333333,30 L13.3333333,33.9746094 C11.1271158,33.0021158 9.03971354,31.780599 7.11181646,30.3336587 L4.44335937,28.3333333 L7.11018875,26.3330079 C12.5976562,22.2347004 19.260254,20.0138346 26.110026,20 L73.8883462,20 C80.7381185,20.0138346 87.3999023,22.2347004 92.8881835,26.3330079 L95.5550129,28.3333333 L92.8881835,30.3336587 C87.3999023,34.4319662 80.7381185,36.6528321 73.8883462,36.6666667 L66.6666667,36.6666667 L66.6666667,31.6666667 C66.6666667,30.7462565 65.9204102,30 65,30 Z M96.6666667,43.3333333 C96.6666667,43.8582356 96.4192708,44.3522135 96.0001627,44.6663412 L92.8881835,47.0003254 C87.3999023,51.0986329 80.7381185,53.3194987 73.8883462,53.3333333 L66.6666667,53.3333333 L66.6666667,40 L73.8883462,40 C81.4591471,39.9845377 88.8224283,37.5301106 94.8885092,32.9996746 L96.6666667,31.6666667 L96.6666667,43.3333333 Z M96.6666667,25 L94.8901367,23.6669921 C88.824056,19.136556 81.4607748,16.682129 73.889974,16.6666667 L68.3333333,16.6666667 L71.0001627,14.6663412 C71.4192708,14.3522135 71.6666667,13.8582356 71.6666667,13.3333333 L71.6666667,6.66666667 C71.6666667,6.14176437 71.4192708,5.64778646 71.0001627,5.33365875 L68.3333333,3.33333333 L73.8883462,3.33333333 C80.7381185,3.34716792 87.3999023,5.56803375 92.8881835,9.66634125 L96.0001627,12.0003254 C96.4192708,12.3144531 96.6666667,12.808431 96.6666667,13.3333333 L96.6666667,25 Z" id="Shape" fill-rule="nonzero"></path>
                </g>
            </g>
        </g>
    </g>
</svg>