<?xml version="1.0" encoding="UTF-8"?>
<svg width="100px" height="94px" viewBox="0 0 100 94" version="1.1" xmlns="http://www.w3.org/2000/svg" xmlns:xlink="http://www.w3.org/1999/xlink">
    <!-- Generator: Sketch 52.5 (67469) - http://www.bohemiancoding.com/sketch -->
    <title>like (1)</title>
    <desc>Created with Sketch.</desc>
    <g id="Page-1" stroke="none" stroke-width="1" fill="none" fill-rule="evenodd">
        <g id="Desktop" transform="translate(-561.000000, -870.000000)" fill="#000000">
            <g id="Group-3" transform="translate(547.000000, 869.000000)">
                <g id="like-(1)" transform="translate(14.000000, 0.000000)">
                    <path d="M99.8288462,29.3115385 C98.3692308,13.2461538 86.9980769,1.59038462 72.7673077,1.59038462 C63.2865385,1.59038462 54.6057692,6.69230769 49.7211538,14.8692308 C44.8807692,6.58653846 36.5557692,1.58846154 27.2269231,1.58846154 C12.9980769,1.58846154 1.625,13.2442308 0.167307692,29.3096154 C0.0519230769,30.0192308 -0.421153846,33.7538462 1.01730769,39.8442308 C3.09038462,48.6288462 7.87884615,56.6192308 14.8615385,62.9461538 L49.6980769,94.5596154 L85.1326923,62.9480769 C92.1153846,56.6192308 96.9038462,48.6307692 98.9769231,39.8442308 C100.415385,33.7557692 99.9423077,30.0211538 99.8288462,29.3115385 Z M95.2326923,38.9634615 C93.3403846,46.9865385 88.9538462,54.2961538 82.5596154,60.0884615 L49.7211538,89.3865385 L17.4461538,60.0961538 C11.0403846,54.2923077 6.65576923,46.9846154 4.76153846,38.9615385 C3.4,33.1980769 3.95961538,29.9423077 3.96153846,29.9211538 L3.99038462,29.7269231 C5.24038462,15.6519231 15.0115385,5.43461538 27.2269231,5.43461538 C36.2403846,5.43461538 44.175,10.9730769 47.9403846,19.8865385 L49.7115385,24.0846154 L51.4826923,19.8865385 C55.1884615,11.1096154 63.5423077,5.43653846 72.7692308,5.43653846 C84.9826923,5.43653846 94.7557692,15.6538462 96.0307692,29.9115385 C96.0346154,29.9423077 96.5942308,33.2 95.2326923,38.9634615 Z" id="Shape" fill-rule="nonzero"></path>
                    <path d="M30.7673077,13.2769231 C20.1634615,13.2769231 11.5365385,21.9038462 11.5365385,32.5076923 C11.5365385,33.5711538 12.3961538,34.4307692 13.4596154,34.4307692 C14.5230769,34.4307692 15.3826923,33.5711538 15.3826923,32.5076923 C15.3826923,24.025 22.2846154,17.1230769 30.7673077,17.1230769 C31.8307692,17.1230769 32.6903846,16.2634615 32.6903846,15.2 C32.6903846,14.1365385 31.8288462,13.2769231 30.7673077,13.2769231 Z" id="Path"></path>
                </g>
            </g>
        </g>
    </g>
</svg>