<?xml version="1.0" encoding="UTF-8"?>
<svg width="100px" height="100px" viewBox="0 0 100 100" version="1.1" xmlns="http://www.w3.org/2000/svg" xmlns:xlink="http://www.w3.org/1999/xlink">
    <!-- Generator: Sketch 52.5 (67469) - http://www.bohemiancoding.com/sketch -->
    <title>consent</title>
    <desc>Created with Sketch.</desc>
    <g id="Page-1" stroke="none" stroke-width="1" fill="none" fill-rule="evenodd">
        <g id="Desktop" transform="translate(-160.000000, -870.000000)" fill="#000000">
            <g id="Group-2" transform="translate(152.000000, 870.000000)">
                <g id="consent" transform="translate(8.000000, 0.000000)">
                    <path d="M34.375,11.71875 C35.4530334,11.71875 36.328125,10.8436584 36.328125,9.765625 C36.328125,8.6875916 35.4530334,7.8125 34.375,7.8125 C33.2969666,7.8125 32.421875,8.6875916 32.421875,9.765625 C32.421875,10.8436584 33.2969666,11.71875 34.375,11.71875 Z" id="Path"></path>
                    <path d="M21.484375,40.234375 C22.5624084,40.234375 23.4375,39.3592834 23.4375,38.28125 C23.4375,37.2032166 22.5624084,36.328125 21.484375,36.328125 C20.4063416,36.328125 19.53125,37.2032166 19.53125,38.28125 C19.53125,39.3592834 20.4063416,40.234375 21.484375,40.234375 Z" id="Path"></path>
                    <path d="M94.140625,28.515625 L92.1875,28.515625 L92.1875,24.609375 C92.1875,22.6882934 91.496277,20.8732605 90.234375,19.4458008 L90.234375,14.84375 C90.234375,11.6127014 87.6060486,8.984375 84.375,8.984375 C81.1439514,8.984375 78.515625,11.6127014 78.515625,14.84375 L78.515625,19.4480896 C77.2659301,20.8641053 76.5625,22.6989746 76.5625,24.609375 L76.5625,78.515625 C76.5625,88.2621766 82.1449279,94.280243 82.421875,94.7914123 L82.421875,98.046875 C82.421875,99.1256715 83.2962035,100 84.375,100 C85.4537965,100 86.328125,99.1256715 86.328125,98.046875 L86.328125,94.7914123 C86.604309,94.2810059 92.1875,88.3140564 92.1875,78.515625 L92.1875,32.421875 L94.140625,32.421875 C95.2178955,32.421875 96.09375,33.2977295 96.09375,34.375 L96.09375,50 C96.09375,51.0787965 96.9680785,51.953125 98.046875,51.953125 C99.1256715,51.953125 100,51.0787965 100,50 L100,34.375 C100,31.1439514 97.3716736,28.515625 94.140625,28.515625 Z M80.46875,24.609375 C80.46875,22.4647521 82.2158812,20.703125 84.375,20.703125 C86.478424,20.703125 88.28125,22.4044801 88.28125,24.609375 L88.28125,28.515625 L80.46875,28.515625 L80.46875,24.609375 Z M84.375,12.890625 C85.4522705,12.890625 86.328125,13.7664795 86.328125,14.84375 L86.328125,17.0471191 C85.6956482,16.8830871 85.0395203,16.796875 84.375,16.796875 C83.7097168,16.796875 83.0543518,16.8830871 82.421875,17.0463562 L82.421875,14.84375 C82.421875,13.7664795 83.2977295,12.890625 84.375,12.890625 Z M84.375,90.8676148 C82.2257996,87.8059387 80.9043885,84.1880799 80.5595398,80.4664611 L88.1904602,80.4664611 C87.8456115,84.1880799 86.5242004,87.8059387 84.375,90.8676148 Z M88.28125,76.5625 L80.46875,76.5625 L80.46875,32.421875 L88.28125,32.421875 L88.28125,76.5625 Z" id="Shape" fill-rule="nonzero"></path>
                    <path d="M62.890625,100 C66.1216736,100 68.75,97.3716736 68.75,94.140625 L68.75,21.484375 C68.75,18.2533264 66.1216736,15.625 62.890625,15.625 L52.7893066,15.625 C51.9828797,13.3514404 49.8115539,11.71875 47.265625,11.71875 L43.9361572,11.71875 C44.0719605,11.0786437 44.140625,10.4263305 44.140625,9.765625 C44.140625,4.38079844 39.7598266,0 34.375,0 C28.9901734,0 24.609375,4.38079844 24.609375,9.765625 C24.609375,10.4263305 24.6780395,11.0786437 24.8138428,11.71875 L21.484375,11.71875 C18.9384461,11.71875 16.7671203,13.3514404 15.9606934,15.625 L5.859375,15.625 C2.62832637,15.625 0,18.2533264 0,21.484375 L0,94.140625 C0,97.3716736 2.62832637,100 5.859375,100 L62.890625,100 Z M57.03125,79.3251037 L57.03125,88.28125 L48.0751037,88.28125 L57.03125,79.3251037 Z M45.3125,85.5186463 L45.3125,76.5625 L54.2686463,76.5625 L45.3125,85.5186463 Z M57.03125,72.65625 L43.359375,72.65625 C42.2805785,72.65625 41.40625,73.5305785 41.40625,74.609375 L41.40625,88.28125 L11.71875,88.28125 L11.71875,27.34375 L57.03125,27.34375 L57.03125,72.65625 Z M21.484375,15.625 L27.6481629,15.625 C28.3477783,15.625 28.993225,15.2511598 29.3418885,14.6453857 C29.6897889,14.0396117 29.6882629,13.293457 29.3365479,12.689209 C28.791809,11.7538453 28.515625,10.7696533 28.515625,9.765625 C28.515625,6.53457637 31.1439514,3.90625 34.375,3.90625 C37.6060486,3.90625 40.234375,6.53457637 40.234375,9.765625 C40.234375,10.7696533 39.958191,11.7538453 39.4134521,12.689209 C39.0617371,13.293457 39.0594482,14.0396117 39.4081115,14.6453857 C39.756775,15.2519227 40.4022217,15.625 41.1018371,15.625 L47.265625,15.625 C48.3428955,15.625 49.21875,16.5008545 49.21875,17.578125 L49.21875,23.4375 L19.53125,23.4375 L19.53125,17.578125 C19.53125,16.5008545 20.4071045,15.625 21.484375,15.625 Z M3.90625,94.140625 L3.90625,21.484375 C3.90625,20.4071045 4.78210449,19.53125 5.859375,19.53125 L15.625,19.53125 L15.625,23.4375 L9.765625,23.4375 C8.68682852,23.4375 7.8125,24.3118285 7.8125,25.390625 L7.8125,90.234375 C7.8125,91.3131715 8.68682852,92.1875 9.765625,92.1875 L58.984375,92.1875 C60.0631715,92.1875 60.9375,91.3131715 60.9375,90.234375 C60.9375,83.6044312 60.9375,41.1590576 60.9375,25.390625 C60.9375,24.3118285 60.0631715,23.4375 58.984375,23.4375 L53.125,23.4375 L53.125,19.53125 L62.890625,19.53125 C63.9678955,19.53125 64.84375,20.4071045 64.84375,21.484375 L64.84375,94.140625 C64.84375,95.2178955 63.9678955,96.09375 62.890625,96.09375 L5.859375,96.09375 C4.78210449,96.09375 3.90625,95.2178955 3.90625,94.140625 Z" id="Shape" fill-rule="nonzero"></path>
                    <path d="M47.265625,36.328125 L29.296875,36.328125 C28.2180785,36.328125 27.34375,37.2024535 27.34375,38.28125 C27.34375,39.3600465 28.2180785,40.234375 29.296875,40.234375 L47.265625,40.234375 C48.3444215,40.234375 49.21875,39.3600465 49.21875,38.28125 C49.21875,37.2024535 48.3444215,36.328125 47.265625,36.328125 Z" id="Path"></path>
                    <path d="M47.265625,57.03125 L21.484375,57.03125 C20.4055785,57.03125 19.53125,57.9055785 19.53125,58.984375 C19.53125,60.0631715 20.4055785,60.9375 21.484375,60.9375 L47.265625,60.9375 C48.3444215,60.9375 49.21875,60.0631715 49.21875,58.984375 C49.21875,57.9055785 48.3444215,57.03125 47.265625,57.03125 Z" id="Path"></path>
                    <path d="M47.265625,64.84375 L21.484375,64.84375 C20.4055785,64.84375 19.53125,65.7180785 19.53125,66.796875 C19.53125,67.8756715 20.4055785,68.75 21.484375,68.75 L47.265625,68.75 C48.3444215,68.75 49.21875,67.8756715 49.21875,66.796875 C49.21875,65.7180785 48.3444215,64.84375 47.265625,64.84375 Z" id="Path"></path>
                    <path d="M47.265625,49.21875 L21.484375,49.21875 C20.4055785,49.21875 19.53125,50.0930785 19.53125,51.171875 C19.53125,52.2506715 20.4055785,53.125 21.484375,53.125 L47.265625,53.125 C48.3444215,53.125 49.21875,52.2506715 49.21875,51.171875 C49.21875,50.0930785 48.3444215,49.21875 47.265625,49.21875 Z" id="Path"></path>
                </g>
            </g>
        </g>
    </g>
</svg>