<?xml version="1.0" encoding="UTF-8"?>
<svg width="147px" height="30px" viewBox="0 0 147 30" version="1.1" xmlns="http://www.w3.org/2000/svg" xmlns:xlink="http://www.w3.org/1999/xlink">
    <!-- Generator: Sketch 52.5 (67469) - http://www.bohemiancoding.com/sketch -->
    <title>Group 5</title>
    <desc>Created with Sketch.</desc>
    <defs>
        <polygon id="path-1" points="0.00405334284 0.00777403846 6.24093602 0.00777403846 6.24093602 5.61928125 0.00405334284 5.61928125"></polygon>
        <polygon id="path-3" points="0.00639836683 0.00777403846 6.24328325 0.00777403846 6.24328325 5.61929135 0.00639836683 5.61929135"></polygon>
        <polygon id="path-5" points="0 0.00442361111 6.87346235 0.00442361111 6.87346235 6.24761806 0 6.24761806"></polygon>
    </defs>
    <g id="Page-1" stroke="none" stroke-width="1" fill="none" fill-rule="evenodd">
        <g id="Desktop" transform="translate(-45.000000, -20.000000)">
            <g id="Group-5" transform="translate(45.000000, 18.000000)">
                <g id="Group-76" transform="translate(0.000000, 2.000000)">
                    <path d="M29.5250891,24.4965676 C29.4658255,25.194735 29.1498166,25.8340827 28.5436828,26.4625065 C27.114491,27.9443114 24.2561076,27.2034089 23.5667295,26.1332277 C23.3060898,25.7286 22.7263815,26.4997079 22.5,26.1069359 C22.6033306,27.0184199 23.0519944,27.8927025 23.8242654,28.525126 C25.4181594,29.8304429 27.8375855,29.6063458 29.1517638,28.0303261 C30.0169561,26.9927445 30.2083183,25.6338404 29.7805168,24.4594809 C29.7325994,24.3279644 29.5369037,24.3574101 29.5250891,24.4965676" id="Fill-1" fill="#FFB800"></path>
                    <path d="M29.5644532,26.5512421 C29.4700293,27.1745346 29.2224738,27.7642723 28.8485528,28.2566728 C28.2105503,29.0968555 27.2567658,29.5787225 26.2317992,29.5787225 C25.4411368,29.5787225 24.6757698,29.282026 24.0766885,28.7432844 C23.492482,28.2179408 23.0971508,27.5067405 22.9424511,26.7134957 C23.0528319,26.6970242 23.1596467,26.6439542 23.2635337,26.5923165 C23.3506589,26.549034 23.4493981,26.4999476 23.5063437,26.4999476 C23.5190538,26.4999476 23.5248539,26.4999476 23.541241,26.5278925 C23.7536772,26.8900127 24.1562792,27.2221439 24.6748956,27.4630849 C25.1914445,27.703071 25.7876812,27.8352313 26.3538078,27.8352313 C26.778375,27.8352313 27.1765229,27.7634518 27.5372066,27.621892 C27.939878,27.4638309 28.2861449,27.2219201 28.5664053,26.9028438 C29.0778618,26.3205362 29.3869003,25.7192505 29.5048295,25.0739213 C29.6179854,25.5555049 29.6388821,26.0599905 29.5644532,26.5512421 M29.4819347,24.375 C29.3118608,24.375 29.1729794,24.5124568 29.1588817,24.6947179 C29.1064179,25.3735272 28.8194417,26.0011913 28.281552,26.6135773 C27.700523,27.2750946 26.9125386,27.4139389 26.3538078,27.4139389 C25.3278976,27.4139389 24.2380346,26.9260144 23.8726332,26.3031247 C23.7864931,26.1562833 23.6598362,26.0786702 23.5063437,26.0786702 C23.3632303,26.0786702 23.2229336,26.1483907 23.0991766,26.2099053 C23.0207376,26.2488611 22.9231501,26.2973656 22.8747102,26.2973805 L22.8742662,26.2973805 C22.8724346,26.294874 22.8697566,26.2908158 22.8665097,26.2846091 C22.8207755,26.1974622 22.7242843,26.1568801 22.6357437,26.1876896 C22.5471616,26.2184097 22.4909374,26.3119125 22.5012054,26.4113833 C22.6086585,27.4523128 23.0789182,28.3952337 23.8253311,29.0664488 C24.4947758,29.6684656 25.3494188,30 26.2317992,30 C27.374917,30 28.4393043,29.4616911 29.1520272,28.5231268 C29.5693651,27.9735534 29.8457126,27.3151097 29.9511676,26.6189783 C30.0533895,25.9442123 29.9944457,25.2470366 29.7807191,24.6027966 C29.7348045,24.4644148 29.6175275,24.375 29.4819347,24.375" id="Fill-3" fill="#001D29"></path>
                    <path d="M12.5470742,0.0046885465 C10.9844029,0.147623545 9.01404093,0.141041468 8.47545947,0.531711988 C7.87232882,0.969191469 8.03479939,3.21753198 9.06300162,3.60818864 C9.88784471,3.9215925 12.4903192,2.09436635 12.4903192,2.09436635 L12.6861759,4.85351761 L13.7143642,5 L13.7499316,1.11204333 C13.7571145,0.460195989 13.1979568,-0.0548411437 12.5470742,0.0046885465" id="Fill-5" fill="#FFB800"></path>
                    <g id="Group-9" transform="translate(8.125000, 0.000000)">
                        <mask id="mask-2" fill="white">
                            <use xlink:href="#path-1"></use>
                        </mask>
                        <g id="Clip-8"></g>
                        <path d="M5.79947869,5.18118029 L5.12613479,5.08484856 L4.93473214,2.37694471 C4.92954781,2.3036899 4.88538018,2.23888702 4.81913594,2.20738702 C4.75290611,2.17585817 4.67485311,2.18253606 4.61488767,2.2248101 C3.99309908,2.66315625 2.2059879,3.80083413 1.41422523,3.80099279 L1.41408122,3.80099279 C1.34865783,3.80099279 1.29404954,3.79282933 1.25179724,3.77670433 C0.935668203,3.65608413 0.556131912,3.21335337 0.438994816,2.33253606 C0.342897465,1.60998317 0.496598502,1.07038702 0.690017281,0.929502404 C1.05269009,0.665329327 2.3340409,0.585699519 3.46454205,0.515444712 C3.91356279,0.487536058 4.3778629,0.458675481 4.80931452,0.419055288 C4.83841878,0.416387019 4.86788306,0.415016827 4.89687212,0.415016827 C5.14844182,0.415016827 5.38502016,0.514276442 5.56298675,0.694492788 C5.74067972,0.874420673 5.83702189,1.11313702 5.83422811,1.36701202 L5.79947869,5.18118029 Z M4.89687212,0.00776682692 C4.85554147,0.00776682692 4.81357719,0.00969951923 4.77217454,0.0135072115 C4.34669931,0.0525793269 3.88543779,0.0812379808 3.43935484,0.108973558 C2.08176555,0.193334135 0.909314516,0.266199519 0.450832373,0.600137019 C0.260826613,0.738555288 0.123773041,0.997983173 0.0544902074,1.35041106 C-0.00563364055,1.6563101 -0.0122292627,2.02419952 0.0359130184,2.38630529 C0.155426267,3.28492067 0.555843894,3.94698317 1.10705357,4.15728606 C1.19569124,4.19110817 1.29898906,4.20825721 1.41406682,4.20825721 L1.41429724,4.20825721 C1.87725806,4.20817067 2.59932028,3.9276274 3.56046659,3.37444471 C3.96174827,3.1435024 4.31821429,2.91473798 4.55402938,2.75826202 L4.73211118,5.27756971 C4.73887961,5.37322356 4.81137385,5.45120913 4.90616071,5.46476683 L5.97191532,5.6172476 C5.98150634,5.61861779 5.99111175,5.61928125 6.00067396,5.61928125 C6.04897465,5.61928125 6.09608007,5.60203125 6.13317684,5.57009856 C6.17763249,5.53183413 6.20343894,5.47621875 6.20397177,5.41751683 L6.24085253,1.37110817 C6.24482719,1.00797837 6.10676555,0.665978365 5.85209965,0.40809375 C5.59714574,0.149935096 5.25790323,0.00776682692 4.89687212,0.00776682692 Z" id="Fill-7" fill="#001D29" mask="url(#mask-2)"></path>
                    </g>
                    <path d="M24.0245414,0.531710513 C23.4859612,0.141041075 21.515604,0.147623134 19.9529366,0.00468853146 C19.3020555,-0.0548409937 18.7428992,0.460194712 18.7500682,1.1120541 L18.7856493,5 L19.8138491,4.85350416 L20.0096914,2.09436055 C20.0096914,2.09436055 22.6121596,3.92159549 23.4370007,3.6081925 C24.4652004,3.21752306 24.6276706,0.969188781 24.0245414,0.531710513" id="Fill-10" fill="#FFB800"></path>
                    <g id="Group-14" transform="translate(18.750000, 0.000000)">
                        <mask id="mask-4" fill="white">
                            <use xlink:href="#path-3"></use>
                        </mask>
                        <g id="Clip-13"></g>
                        <path d="M5.80833957,2.33253173 C5.69120248,3.21336346 5.31168059,3.65609423 4.99553715,3.7767 C4.95329925,3.792825 4.89863335,3.80098846 4.83308036,3.80098846 C4.04186492,3.80098846 2.25442252,2.66320962 1.63243232,2.22480577 C1.57249568,2.18254615 1.49439948,2.17588269 1.42819844,2.20739712 C1.36195421,2.23889712 1.31778658,2.30368558 1.31260225,2.37694038 L1.1211852,5.08484423 L0.447855703,5.18117596 L0.413091878,1.36663269 C0.4103125,1.11314712 0.506654666,0.874430769 0.684333237,0.694502885 C0.862314228,0.514286538 1.09889257,0.415026923 1.35044787,0.415026923 C1.37945132,0.415026923 1.40891561,0.416382692 1.43801987,0.419050962 C1.86945709,0.458685577 2.333786,0.487546154 2.78279234,0.515440385 C3.91329349,0.585695192 5.1946299,0.665325 5.55731711,0.9295125 C5.75072149,1.07038269 5.90443692,1.60997885 5.80833957,2.33253173 M5.79648762,0.600147115 C5.33801987,0.266195192 4.16556884,0.193344231 2.80797955,0.108969231 C2.3618966,0.0812480769 1.90062068,0.052575 1.47514545,0.0135028846 C1.4337428,0.00969519231 1.39179291,0.0077625 1.35044787,0.0077625 C0.989416763,0.0077625 0.650174251,0.149945192 0.395220334,0.408118269 C0.140568836,0.666002885 0.00250720046,1.00800288 0.00648185484,1.37072885 L0.0433482143,5.41752692 C0.0438954493,5.47621442 0.0696875,5.53184423 0.114157546,5.57009423 C0.15125432,5.60204135 0.198345334,5.61929135 0.246660426,5.61929135 C0.256208237,5.61929135 0.265828053,5.61861346 0.275404666,5.61724327 L1.34117368,5.4647625 C1.43596054,5.45120481 1.50845478,5.37323365 1.51522321,5.27756538 L1.69330501,2.75828654 C1.9291345,2.91477692 2.28558612,3.14355577 2.6868678,3.37452692 C3.64801411,3.92775288 4.37011953,4.20825288 4.83308036,4.20825288 C4.94828773,4.20825288 5.05164315,4.19110385 5.14029522,4.15728173 C5.6915049,3.94697885 6.09190812,3.28491635 6.21140697,2.38630096 C6.25957805,2.02418077 6.25296803,1.65630577 6.19282978,1.35042115 C6.12356135,0.997993269 5.98649338,0.738550962 5.79648762,0.600147115" id="Fill-12" fill="#001D29" mask="url(#mask-4)"></path>
                    </g>
                    <polygon id="Fill-15" fill="#FFB800" points="16.3505076 5 16.1494924 5 12.7324206 5 6.25 29.375 16.1494924 29.375 16.3505076 29.375 26.25 29.375 19.7675936 5"></polygon>
                    <path d="M6.70337013,28.9828405 L12.953932,5.39215952 L19.5460327,5.39215952 L25.7966226,28.9828405 L6.70337013,28.9828405 Z M19.8889972,5.146164 C19.8661851,5.06002668 19.7877964,5 19.6981554,5 L12.8018233,5 C12.7121823,5 12.6337936,5.06002668 12.6109815,5.146164 L6.25650704,29.1289906 C6.24092155,29.187809 6.25368348,29.2504745 6.29103273,29.2986264 C6.32840994,29.3467922 6.38613913,29.375 6.44734885,29.375 L26.0526579,29.375 C26.1138676,29.375 26.1715828,29.3467922 26.208946,29.2986264 C26.2463232,29.2504745 26.2590712,29.187809 26.2434997,29.1289906 L19.8889972,5.146164 Z" id="Fill-17" fill="#001D29"></path>
                    <path d="M23.6588011,5 L12.5,5 L14.9885464,10.002177 C15.8346471,10.7600817 19.784694,11.0694031 21.6578406,9.49690238 C23.1806071,8.2185681 23.9452458,6.88775787 24.3167398,6.00877133 C24.5186153,5.53106811 24.170834,5 23.6588011,5" id="Fill-19" fill="#FFB800"></path>
                    <path d="M24.0680067,5 L12.7030873,5 C12.5909211,5 12.5,5.08454312 12.5,5.18882769 C12.5,5.29312563 12.5909211,5.37765538 12.7030873,5.37765538 L24.0680067,5.37765538 C24.2480365,5.37765538 24.4081301,5.45786501 24.5072645,5.59772697 C24.6055645,5.73641193 24.6216746,5.90322444 24.551452,6.05540473 C24.1780297,6.86469682 23.415032,8.07384672 21.9006587,9.23825738 C21.4753391,9.56530191 20.9137026,9.81943952 20.2313414,9.99360826 C19.6314147,10.1467382 18.942106,10.2339697 18.2378956,10.2458734 C16.8119406,10.2700954 15.7166156,9.99632337 15.3719468,9.71353659 C15.2878438,9.64453517 15.1595243,9.6519984 15.0853318,9.73018841 C15.0111249,9.80839181 15.0191368,9.92770983 15.1032399,9.99671125 C15.5679141,10.3779645 16.7438325,10.625 18.0654317,10.625 C18.1250389,10.625 18.1851351,10.6244918 18.2452745,10.6234753 C18.982827,10.6110098 19.7067867,10.5191372 20.3388615,10.357795 C21.0770326,10.169382 21.6895596,9.89063444 22.1594839,9.52930989 C23.7364131,8.31677612 24.5336159,7.05190614 24.9247017,6.20430816 C25.0479004,5.93733058 25.018629,5.63287637 24.846381,5.38989346 C24.6733418,5.14574694 24.3823541,5 24.0680067,5" id="Fill-21" fill="#001D29"></path>
                    <path d="M15.625,6.25 C14.9346496,6.25 14.375,6.80964961 14.375,7.5 C14.375,8.19035039 14.9346496,8.75 15.625,8.75 C16.3153646,8.75 16.875,8.19035039 16.875,7.5 C16.875,6.80964961 16.3153646,6.25 15.625,6.25" id="Fill-23" fill="#FFFFFF"></path>
                    <path d="M16.25,7.37804878 C16.1826492,7.37804878 16.1280488,7.4326492 16.1280488,7.5 C16.1280488,7.5673508 16.1826492,7.62195122 16.25,7.62195122 C16.3173508,7.62195122 16.3719512,7.5673508 16.3719512,7.5 C16.3719512,7.4326492 16.3173508,7.37804878 16.25,7.37804878" id="Fill-25" fill="#000000"></path>
                    <path d="M16.2724912,6.9474912 C16.2449143,6.9474912 16.2224912,6.92506812 16.2224912,6.8974912 C16.2224912,6.86991427 16.2449143,6.8474912 16.2724912,6.8474912 C16.3000681,6.8474912 16.3224912,6.86991427 16.3224912,6.8974912 C16.3224912,6.92506812 16.3000681,6.9474912 16.2724912,6.9474912 M16.25,6.25 C15.9053782,6.25 15.625,6.53037818 15.625,6.875 C15.625,7.21962182 15.9053782,7.5 16.25,7.5 C16.5946218,7.5 16.875,7.21962182 16.875,6.875 C16.875,6.53037818 16.5946218,6.25 16.25,6.25" id="Fill-27" fill="#001D29"></path>
                    <path d="M18.75,7.37804878 C18.6826492,7.37804878 18.6280488,7.4326492 18.6280488,7.5 C18.6280488,7.5673508 18.6826492,7.62195122 18.75,7.62195122 C18.8173508,7.62195122 18.8719512,7.5673508 18.8719512,7.5 C18.8719512,7.4326492 18.8173508,7.37804878 18.75,7.37804878" id="Fill-29" fill="#000000"></path>
                    <path d="M18.7724912,6.9474912 C18.7449143,6.9474912 18.7224912,6.92506812 18.7224912,6.8974912 C18.7224912,6.86991427 18.7449143,6.8474912 18.7724912,6.8474912 C18.8000681,6.8474912 18.8224912,6.86991427 18.8224912,6.8974912 C18.8224912,6.92506812 18.8000681,6.9474912 18.7724912,6.9474912 M18.75,6.25 C18.4053782,6.25 18.125,6.53037818 18.125,6.875 C18.125,7.21962182 18.4053782,7.5 18.75,7.5 C19.0946218,7.5 19.375,7.21962182 19.375,6.875 C19.375,6.53037818 19.0946218,6.25 18.75,6.25" id="Fill-31" fill="#001D29"></path>
                    <path d="M24.2419674,5 L23.2700714,5 C23.1769148,5.23393262 23.125,5.49184685 23.125,5.76302114 C23.125,6.53032792 23.5385095,7.1923008 24.136075,7.5 C24.5076401,6.9549337 24.7640151,6.45647175 24.9383249,6.05060626 C25.1520231,5.55309999 24.783896,5 24.2419674,5" id="Fill-33" fill="#FFFFFF"></path>
                    <path d="M24.4925676,6.26031455 C24.2963081,6.70934424 24.0503045,7.15786283 23.7601218,7.59607964 C23.2681308,7.26509713 22.9594628,6.6760112 22.9594628,6.0416294 C22.9594628,5.83864447 22.9898431,5.64061079 23.0498876,5.45099421 L23.9456578,5.45099421 C24.1493048,5.45099421 24.330431,5.54677677 24.4425955,5.7138093 C24.5538,5.87940437 24.5720086,6.07860399 24.4925676,6.26031455 M23.9456578,5 L22.8876534,5 C22.7935511,5 22.708968,5.05633235 22.6741943,5.14214854 C22.5585963,5.427372 22.5,5.72998868 22.5,6.0416294 C22.5,6.47876013 22.6170624,6.90351276 22.8385438,7.26993657 C23.0557619,7.62936476 23.3623308,7.91637705 23.7251202,8.09992436 C23.7586573,8.11688635 23.7946515,8.125 23.8302388,8.125 C23.904131,8.125 23.9761682,8.08997396 24.020266,8.02640641 C24.3795406,7.50858641 24.6804956,6.97420371 24.9148157,6.43812801 C25.0541874,6.11933195 25.0210734,5.75578305 24.8262297,5.46562433 C24.6304585,5.17406009 24.3012712,5 23.9456578,5" id="Fill-35" fill="#001D29"></path>
                    <path d="M19.5795405,27.7556678 L19.5795405,19.375 L16.875,19.375 L16.875,29.375 L18.6144393,29.375 L19.5795405,29.375 L21.25,29.375 C21.25,28.5174269 20.5131162,27.8155973 19.5795405,27.7556678" id="Fill-37" fill="#FFB800"></path>
                    <path d="M19.7274123,27.9731909 L19.7274123,19.5711428 C19.7274123,19.4628183 19.6407141,19.375 19.5337713,19.375 C19.4268284,19.375 19.3401303,19.4628183 19.3401303,19.5711428 L19.3401303,28.1468408 C19.3401303,28.2497609 19.4186675,28.3351896 19.5200279,28.3424973 C19.8841438,28.3687414 20.2225012,28.5323883 20.4727751,28.8032899 C20.6797068,29.0272883 20.8101175,29.3075678 20.8498251,29.6077005 L17.2622957,29.6077005 L17.2622957,19.5711428 C17.2622957,19.4628183 17.1755838,19.375 17.068641,19.375 C16.9617119,19.375 16.875,19.4628183 16.875,19.5711428 L16.875,29.8038572 C16.875,29.9121678 16.9617119,30 17.068641,30 L21.056359,30 C21.1633018,30 21.25,29.9121678 21.25,29.8038572 C21.25,29.3309221 21.0743954,28.8803966 20.7555557,28.5352502 C20.479976,28.2369514 20.1199749,28.0412393 19.7274123,27.9731909" id="Fill-39" fill="#001D29"></path>
                    <path d="M13.5454502,27.7556678 C12.6118713,27.8155973 11.875,28.5174269 11.875,29.375 L13.5454502,29.375 L14.5105547,29.375 L16.25,29.375 L16.25,19.375 L13.5454502,19.375 L13.5454502,27.7556678 Z" id="Fill-41" fill="#FFB800"></path>
                    <path d="M15.4313584,19.375 C15.3244152,19.375 15.2377168,19.4628184 15.2377168,19.5711431 L15.2377168,29.6077139 L11.6501625,29.6077139 C11.6898701,29.3075808 11.820295,29.027301 12.0272136,28.8033022 C12.277502,28.5324002 12.6158468,28.3687393 12.9799638,28.3425091 C13.0813245,28.3351874 13.159862,28.2497725 13.159862,28.1468522 L13.159862,19.5711431 C13.159862,19.4628184 13.0731636,19.375 12.9662204,19.375 C12.8592772,19.375 12.7725788,19.4628184 12.7725788,19.5711431 L12.7725788,27.973216 C12.3800149,28.0412645 12.0200127,28.236963 11.7444321,28.5352622 C11.4255914,28.880409 11.25,29.3309212 11.25,29.8038569 C11.25,29.9121816 11.3366847,30 11.4436416,30 L15.4313584,30 C15.5383016,30 15.625,29.9121816 15.625,29.8038569 L15.625,19.5711431 C15.625,19.4628184 15.5383016,19.375 15.4313584,19.375" id="Fill-43" fill="#001D29"></path>
                    <path d="M13.2683139,12.7224582 C13.2233802,12.4890382 12.9292995,12.419698 12.7887223,12.6093921 L12.0111525,13.6587441 L11.312809,13.6587441 L11.187191,13.6587441 L10.4888755,13.6587441 L9.71127769,12.6093921 C9.57071452,12.419698 9.2766198,12.4890382 9.23168613,12.7224582 L9.05151684,13.6587441 L5,29.375 L11.187191,29.375 L11.312809,29.375 L17.5,29.375 L13.4484832,13.6587441 L13.2683139,12.7224582 Z" id="Fill-45" fill="#FFFFFF"></path>
                    <path d="M4.83780706,28.9801863 L8.89477373,13.8793031 C8.8958439,13.8752761 8.89679992,13.8712072 8.89762752,13.8671103 L9.080998,12.9527438 C9.09228476,12.8964497 9.14789092,12.8948277 9.1541978,12.8948277 C9.17711376,12.8948277 9.19616283,12.9044338 9.21078852,12.9233802 L10.0022167,13.9481676 C10.0402863,13.9974844 10.0997451,14.0264564 10.1628425,14.0264564 L11.7121668,14.0264564 C11.7752642,14.0264564 11.8347229,13.9974844 11.8728068,13.9481676 L12.6642065,12.9233802 C12.6788322,12.9044338 12.6978812,12.8948277 12.7208115,12.8948277 C12.7271041,12.8948277 12.7827102,12.8964497 12.793997,12.9527438 L12.9773675,13.8671103 C12.9781951,13.8712072 12.9791368,13.8752761 12.9802213,13.8793031 L17.0371879,28.9801863 L4.83780706,28.9801863 Z M13.3714763,13.7848225 L13.1893472,12.8765943 C13.1448709,12.6548717 12.952197,12.5 12.7208115,12.5 C12.5715153,12.5 12.4337769,12.5674802 12.3429264,12.6851301 L11.6119844,13.6316287 L10.2630249,13.6316287 L9.53206856,12.6851301 C9.44121805,12.5674802 9.30347972,12.5 9.1541978,12.5 C8.92279798,12.5 8.73012413,12.6548717 8.68564776,12.8766083 L8.50351868,13.7848225 L4.38164248,29.1273256 C4.36573259,29.186542 4.37876015,29.2496317 4.41688683,29.2981095 C4.45504204,29.3466013 4.51397287,29.375 4.57645668,29.375 L17.2985383,29.375 C17.3610078,29.375 17.4199529,29.3466013 17.4580939,29.2981095 C17.4962348,29.2496317 17.5092624,29.186542 17.4933668,29.1273256 L13.3714763,13.7848225 Z" id="Fill-47" fill="#001D29"></path>
                    <path d="M11.25,28.5151657 C11.25,28.5402202 11.251798,28.5649593 11.255167,28.5893566 C11.2520075,28.6032247 11.25,28.6174214 11.25,28.6319862 L11.25,28.9653854 C11.25,29.103317 11.3984995,29.2151293 11.5816494,29.2151293 C11.6630474,29.2151293 11.7374979,29.1929798 11.7951905,29.1563575 C11.8174994,29.1641 11.8401575,29.1713429 11.8633567,29.177784 C11.8954412,29.2904638 12.0282999,29.375 12.1875175,29.375 C12.3467175,29.375 12.4795763,29.2904638 12.5116607,29.177784 C12.5241069,29.1743269 12.5364135,29.1706462 12.5485979,29.1668079 C12.609258,29.2168513 12.6962944,29.2484521 12.7933331,29.2484521 C12.976518,29.2484521 13.125,29.1365873 13.125,28.9986425 L13.125,28.6652433 C13.125,28.6460514 13.1218579,28.6274511 13.1164116,28.6095081 C13.1218928,28.5786302 13.125,28.547174 13.125,28.5151657 L13.125,23.75 L11.25,25.1197723 L11.25,28.5151657 Z" id="Fill-49" fill="#FFFFFF"></path>
                    <path d="M12.9298534,23.125 C12.822079,23.125 12.7347067,23.2202684 12.7347067,23.3377827 L12.7347067,28.8013603 C12.7347067,28.8269521 12.7329927,28.8538552 12.72962,28.8813611 C12.7265376,28.906546 12.7276158,28.9321227 12.7327992,28.9568705 C12.7340571,28.9629293 12.7347067,28.9684908 12.7347067,28.9734343 L12.7347067,29.3556986 C12.7347067,29.3963169 12.7044354,29.4293391 12.6672251,29.4293391 C12.6417087,29.4293391 12.6251631,29.4141317 12.6175884,29.4050887 C12.562077,29.338773 12.4744007,29.3175822 12.3984181,29.3520965 C12.3912442,29.3553519 12.3840289,29.3585019 12.3767168,29.3614409 C12.3139486,29.3866559 12.2674081,29.4451795 12.2533782,29.5164838 C12.247711,29.5452859 12.2232727,29.5744346 12.1875138,29.5744346 C12.1517549,29.5744346 12.1273028,29.5452859 12.1216494,29.5164989 C12.1076334,29.4451644 12.0610514,29.3866258 11.9982556,29.3614108 C11.9859397,29.3564673 11.9730018,29.3505591 11.9587093,29.3433699 C11.8899422,29.3087049 11.809025,29.3206116 11.7511086,29.3738148 C11.7425109,29.3817275 11.7280111,29.3911473 11.7077611,29.3911473 C11.6705646,29.3911473 11.6403071,29.3581251 11.6403071,29.3175671 L11.6403071,28.9353028 C11.6403071,28.9331325 11.6405282,28.9291686 11.6415788,28.9224617 C11.6446059,28.9032754 11.6452003,28.8837274 11.643348,28.8643602 C11.6413299,28.8432145 11.6403071,28.8220237 11.6403071,28.8013603 L11.6403071,24.9083324 C11.6403071,24.7908181 11.5529348,24.6955497 11.4451466,24.6955497 C11.3373723,24.6955497 11.25,24.7908181 11.25,24.9083324 L11.25,28.8013603 C11.25,28.8277057 11.2509676,28.8544581 11.2528751,28.8811501 C11.2509538,28.8995527 11.25,28.9174579 11.25,28.9353028 L11.25,29.3175671 C11.25,29.5928071 11.4553615,29.8167127 11.7077611,29.8167127 C11.7466024,29.8167127 11.7850429,29.8113019 11.8221979,29.800812 C11.9068886,29.9226519 12.0410916,30 12.1875138,30 C12.3211778,30 12.4446684,29.9355382 12.5295941,29.8316036 C12.5737709,29.8468863 12.6201593,29.8549045 12.6672251,29.8549045 C12.9196523,29.8549045 13.125,29.6309687 13.125,29.3556986 L13.125,28.9734343 C13.125,28.9500279 13.1234104,28.9263653 13.120245,28.9026876 C13.1234104,28.8684295 13.125,28.8344729 13.125,28.8013603 L13.125,23.3377827 C13.125,23.2202684 13.0376277,23.125 12.9298534,23.125" id="Fill-51" fill="#001D29"></path>
                    <path d="M8.75,28.5151657 C8.75,28.5402202 8.75179797,28.5649593 8.75518443,28.5893566 C8.75200744,28.6032378 8.75,28.6174214 8.75,28.6319862 L8.75,28.9653854 C8.75,29.103317 8.89851554,29.2151293 9.08168122,29.2151293 C9.16306104,29.2151293 9.23749337,29.1929798 9.29520286,29.1563575 C9.31749416,29.1641131 9.34018694,29.1713561 9.36338595,29.1777972 C9.39547005,29.290477 9.52831012,29.375 9.68750873,29.375 C9.84672479,29.375 9.97961723,29.2904638 10.0116839,29.1777709 C10.02413,29.1743269 10.036419,29.1706462 10.0486033,29.1668079 C10.1092628,29.2168513 10.1962984,29.2484521 10.2933362,29.2484521 C10.4765019,29.2484521 10.625,29.1365873 10.625,28.9986425 L10.625,28.6652433 C10.625,28.6460514 10.6218754,28.6274511 10.6164291,28.6095081 C10.6219103,28.5786302 10.625,28.547174 10.625,28.5151657 L10.625,25.1197723 L8.75,23.75 L8.75,28.5151657 Z" id="Fill-53" fill="#FFFFFF"></path>
                    <path d="M10.4298562,24.6955497 C10.3220835,24.6955497 10.2347125,24.7908181 10.2347125,24.9083324 L10.2347125,28.8013603 C10.2347125,28.8269521 10.2329985,28.8538552 10.2296259,28.8813611 C10.2265435,28.906546 10.2276216,28.9321679 10.2328188,28.9569458 C10.2340905,28.9630348 10.2347125,28.9684154 10.2347125,28.9734343 L10.2347125,29.3556986 C10.2347125,29.3963169 10.2044278,29.4293391 10.167218,29.4293391 C10.141702,29.4293391 10.1251567,29.4141317 10.1175682,29.4050736 C10.0620439,29.338758 9.97434114,29.3175671 9.89831828,29.3521417 C9.89113067,29.3554122 9.88386012,29.3585622 9.87650663,29.3615314 C9.81384998,29.3868066 9.76739311,29.4452699 9.75339108,29.5164989 C9.74773774,29.5452859 9.72328603,29.5744346 9.6875,29.5744346 C9.65176926,29.5744346 9.62733137,29.5452859 9.62167803,29.516514 C9.60766218,29.4452096 9.56112237,29.3867011 9.49836896,29.3614711 C9.48598415,29.3564823 9.47299115,29.3505591 9.45864357,29.3433398 C9.38990509,29.3087502 9.30900295,29.3206267 9.25110118,29.3738299 C9.24250369,29.3817275 9.22801788,29.3911473 9.20778198,29.3911473 C9.17057224,29.3911473 9.14030133,29.3581251 9.14030133,29.3175671 L9.14030133,28.9353028 C9.14030133,28.9331476 9.14052248,28.9291837 9.14155916,28.9225672 C9.1446139,28.9033206 9.14520826,28.8837123 9.14334224,28.8642999 C9.14132418,28.8431995 9.14030133,28.8220388 9.14030133,28.8013603 L9.14030133,23.3377827 C9.14030133,23.2202684 9.05293034,23.125 8.94514375,23.125 C8.83737099,23.125 8.75,23.2202684 8.75,23.3377827 L8.75,28.8013603 C8.75,28.8277208 8.75096756,28.854443 8.75287505,28.881135 C8.75095374,28.8995376 8.75,28.9174428 8.75,28.9353028 L8.75,29.3175671 C8.75,29.5928071 8.95535846,29.8167127 9.20778198,29.8167127 C9.24662274,29.8167127 9.28506266,29.8113019 9.3222171,29.8007969 C9.40689274,29.9226519 9.54109381,30 9.6875,30 C9.82117582,30 9.9446784,29.9355382 10.0296028,29.8316036 C10.0737652,29.8468863 10.1201668,29.8549045 10.167218,29.8549045 C10.4196415,29.8549045 10.625,29.6309687 10.625,29.3556986 L10.625,28.9734343 C10.625,28.9500128 10.6234104,28.9263351 10.6202451,28.9026725 C10.6234104,28.8684145 10.625,28.8344729 10.625,28.8013603 L10.625,24.9083324 C10.625,24.7908181 10.537629,24.6955497 10.4298562,24.6955497" id="Fill-55" fill="#001D29"></path>
                    <path d="M11.0299841,18.125 C10.9084751,18.125 10.8099682,18.1994411 10.8099682,18.2912647 L10.8099682,18.393817 C10.8099682,18.751478 10.4249013,19.0424706 9.95161308,19.0424706 C9.61624386,19.0424706 9.30954934,18.8934354 9.17024332,18.662787 C9.11976651,18.5792542 8.98929667,18.5424165 8.87872768,18.5805732 C8.76817428,18.6186947 8.71945847,18.7173253 8.76991969,18.8008698 C8.98058517,19.1496394 9.44441389,19.375 9.95161308,19.375 C10.6675453,19.375 11.25,18.9348426 11.25,18.393817 L11.25,18.2912647 C11.25,18.1994411 11.1514931,18.125 11.0299841,18.125" id="Fill-57" fill="#001D29"></path>
                    <path d="M12.9962876,18.580569 C12.8857654,18.5424596 12.7552332,18.5792617 12.704772,18.6627819 C12.5654504,18.8934281 12.2587559,19.042462 11.9234023,19.042462 C11.4500986,19.042462 11.0650318,18.7514839 11.0650318,18.3938144 L11.0650318,18.2912749 C11.0650318,18.1994404 10.9665249,18.125 10.8450159,18.125 C10.7235069,18.125 10.625,18.1994404 10.625,18.2912749 L10.625,18.3938144 C10.625,18.9348467 11.2074546,19.375 11.9234023,19.375 C12.4305859,19.375 12.8944146,19.1496415 13.10508,18.8008635 C13.1555412,18.7173315 13.1068254,18.6187018 12.9962876,18.580569" id="Fill-59" fill="#001D29"></path>
                    <path d="M11.5296759,16.8804059 C11.3851005,16.899603 11.25,16.9819685 11.25,16.9819685 C11.25,16.9819685 11.1302583,16.8997927 10.9869806,16.8804059 C10.8196337,16.8577563 10.625,16.9055341 10.625,17.0378274 C10.625,17.2833937 11.25,17.5 11.25,17.5 C11.25,17.5 11.875,17.2833937 11.875,17.0378274 C11.875,16.906432 11.6960629,16.8583001 11.5296759,16.8804059" id="Fill-61" fill="#FFBB00"></path>
                    <path d="M11.2499176,17.6393771 C11.1195335,17.5405142 11.0061324,17.4095554 10.9862323,17.3313921 C10.996937,17.3290743 11.0138311,17.3287524 11.0288735,17.3323901 C11.0644627,17.3409694 11.1092601,17.3828356 11.1261288,17.4025213 C11.1923101,17.4857548 11.2956915,17.4879761 11.3665022,17.4109718 C11.3818743,17.394264 11.4402301,17.3425307 11.4824146,17.3325189 C11.4935379,17.3298791 11.5054601,17.3293479 11.5141736,17.3303298 C11.4955545,17.4083964 11.3828002,17.5388402 11.2499176,17.6393771 M11.5049148,16.8753058 C11.475591,16.8753058 11.4458995,16.8788309 11.4166772,16.8857523 C11.3560766,16.9001101 11.2999911,16.9302744 11.253786,16.9621288 C11.2095847,16.9301617 11.1557189,16.9003515 11.0958031,16.885881 C11.0658833,16.8786699 11.0352658,16.875 11.0048006,16.875 C10.7847331,16.875 10.625,17.0577403 10.625,17.3095013 C10.625,17.7422159 11.0803041,18.0456296 11.171573,18.1020629 C11.196318,18.1173543 11.2231685,18.125 11.2499937,18.125 C11.2768315,18.125 11.3036693,18.1173543 11.3284143,18.1020629 C11.4196959,18.0456296 11.875,17.7422159 11.875,17.3095013 C11.875,17.0579174 11.7193636,16.8753058 11.5049148,16.8753058" id="Fill-63" fill="#001D29"></path>
                    <path d="M9.92681599,16.4624895 C9.77428079,16.3254615 9.58255969,16.25 9.3869614,16.25 C9.17675118,16.25 8.97407459,16.3357743 8.81626861,16.4915358 C8.73542702,16.571324 8.72743806,16.7096546 8.79842799,16.8005155 C8.83693778,16.8498151 8.89077699,16.875 8.94487835,16.875 C8.99052163,16.875 9.03635808,16.8570728 9.07335011,16.8205672 C9.16002819,16.73501 9.27140442,16.6878815 9.3869614,16.6878815 C9.49604718,16.6878815 9.59860659,16.7282331 9.68355994,16.8045475 C9.76760263,16.8800246 9.89016891,16.8646562 9.95735063,16.770213 C10.0245324,16.6757543 10.0108587,16.537982 9.92681599,16.4624895" id="Fill-65" fill="#001D29"></path>
                    <path d="M13.0587368,16.4915358 C12.9009166,16.3357743 12.6982396,16.25 12.4880427,16.25 C12.2924301,16.25 12.1007085,16.3254615 11.9481868,16.4624895 C11.8641439,16.5379975 11.8504702,16.6757543 11.9176383,16.770213 C11.9848339,16.8646872 12.1074143,16.8800246 12.1914434,16.8045475 C12.2763832,16.7282176 12.3789428,16.6878815 12.4880427,16.6878815 C12.6035861,16.6878815 12.7149764,16.73501 12.8016547,16.8205672 C12.8386468,16.8570728 12.8844834,16.875 12.9301268,16.875 C12.9842283,16.875 13.0380676,16.8497996 13.0765775,16.8005155 C13.1475538,16.7096546 13.1395786,16.5713085 13.0587368,16.4915358" id="Fill-67" fill="#001D29"></path>
                    <path d="M15.3693616,9.40322968 C15.2121063,9.51441589 15.0941528,9.6901484 15.0372461,9.89804637 C14.9843117,10.0914842 14.9878998,10.3028429 15.0473746,10.4932078 C15.0728278,10.5746984 15.1374388,10.625 15.206106,10.625 C15.2258109,10.625 15.2458518,10.6208501 15.2654007,10.6121195 C15.3530528,10.5729035 15.3975509,10.4561026 15.3647774,10.3512203 C15.3316438,10.2451892 15.3297477,10.1321218 15.3592691,10.0242527 C15.3905546,9.90996482 15.4553576,9.8133823 15.5417256,9.75231102 C15.6222973,9.69534657 15.6490106,9.57103571 15.6014164,9.47463986 C15.5538102,9.37825837 15.4499333,9.34625087 15.3693616,9.40322968" id="Fill-69" fill="#001D29"></path>
                    <path d="M1.30161951,26.5625334 C1.30161951,25.6732911 2.08633686,24.9498989 3.05093506,24.9498989 C3.41034913,24.9498989 3.70174481,24.6812756 3.70174481,24.3499494 C3.70174481,24.01861 3.41034913,23.75 3.05093506,23.75 C1.36865297,23.75 0,25.0117204 0,26.5625334 C0,28.1133463 1.36865297,29.375 3.05093506,29.375 L6.33907992,29.375 L6.875,28.1751011 L3.05093506,28.1751011 C2.08633686,28.1751011 1.30161951,27.4517089 1.30161951,26.5625334" id="Fill-71" fill="#FFFFFF"></path>
                    <g id="Group-75" transform="translate(0.000000, 23.750000)">
                        <mask id="mask-6" fill="white">
                            <use xlink:href="#path-5"></use>
                        </mask>
                        <g id="Clip-74"></g>
                        <path d="M6.68049764,4.60734028 L3.07194272,4.60734028 C2.26814177,4.60734028 1.61419669,3.94284028 1.61419669,3.1260625 C1.61419669,2.30924306 2.26814177,1.64471528 3.07194272,1.64471528 C3.51698621,1.64471528 3.87905132,1.27679861 3.87905132,0.824576389 C3.87905132,0.372340278 3.51698621,0.00442361111 3.07194272,0.00442361111 C1.37806846,0.00442361111 -6.83399602e-06,1.40478472 -6.83399602e-06,3.1260625 C-6.83399602e-06,4.84728472 1.37806846,6.24761806 3.07194272,6.24761806 L6.17478193,6.24761806 C6.28136494,6.24761806 6.36776031,6.1598125 6.36776031,6.05152083 C6.36776031,5.94324306 6.28136494,5.8554375 6.17478193,5.8554375 L3.07194272,5.8554375 C1.5908791,5.8554375 0.385936257,4.63104861 0.385936257,3.1260625 C0.385936257,1.62102083 1.5908791,0.396590278 3.07194272,0.396590278 C3.30417557,0.396590278 3.49310823,0.588576389 3.49310823,0.824576389 C3.49310823,1.06054861 3.30417557,1.25253472 3.07194272,1.25253472 C2.05533114,1.25253472 1.22826727,2.09299306 1.22826727,3.1260625 C1.22826727,4.15909028 2.05533114,4.99950694 3.07194272,4.99950694 L6.68049764,4.99950694 C6.78706697,4.99950694 6.87346235,4.91171528 6.87346235,4.80342361 C6.87346235,4.69513194 6.78706697,4.60734028 6.68049764,4.60734028" id="Fill-73" fill="#001D29" mask="url(#mask-6)"></path>
                    </g>
                </g>
                <text id="Pets-AB" font-family="Roboto-Medium, Roboto" font-size="30" font-weight="400" letter-spacing="0.46875" fill="#FFFFFF">
                    <tspan x="33" y="28">Pets-AB</tspan>
                </text>
            </g>
        </g>
    </g>
</svg>